<svg xmlns="http://www.w3.org/2000/svg" viewBox="0 0 2669 2670"><filter id="b"><feGaussianBlur stdDeviation="12" /></filter><path d="M0 0h2669v2670H0z" fill="#c1aea9" /><g filter="url(#b)" transform="scale(10.429688) translate(0.5 0.5)"><g transform="translate(252.991001 144.656563) rotate(184.848344) scale(35.218159 255.000000)"><ellipse fill="#7d756b" fill-opacity=".501961" cx="0" cy="0" rx="1" ry="1" /></g><g transform="translate(44.173504 105.506407) rotate(170.297370) scale(76.703864 63.830591)"><ellipse fill="#ebdcda" fill-opacity=".501961" cx="0" cy="0" rx="1" ry="1" /></g><path fill="#c1003e" fill-opacity=".501961" d="M54.847655 54.737143 60.234548 80.456876 114.88686 136.250392 141.788733 159.517835z" /><path fill="#713900" fill-opacity=".501961" d="M136.003559 133.193703 147.788699 138.151832-14.691935 214.027998-2.666809 199.492255z" /><g transform="translate(125 45) rotate(237) scale(12 57)"><path d="M0 0h2669v2670H0z" fill="#c50047" /></g><g transform="translate(130.584451 107.367250) rotate(27.098226) scale(5.113383 52.971366)"><ellipse fill="#cf0351" fill-opacity=".501961" cx="0" cy="0" rx="1" ry="1" /></g><path fill="#bd0045" fill-opacity=".501961" d="M108.625175 43.188931 68.290885 22.257049 56.662711 90.094583 55.467384 29.401001z" /><g transform="translate(124.545449 71.697755) rotate(118.573282) scale(34.178323 14.822452)"><ellipse fill="#f3f7ec" fill-opacity=".501961" cx="0" cy="0" rx="1" ry="1" /></g></g></svg>