<svg xmlns="http://www.w3.org/2000/svg" viewBox="0 0 5894 5823"><filter id="b"><feGaussianBlur stdDeviation="12" /></filter><path d="M0 0h5894v5823H0z" fill="#5b4d38" /><g filter="url(#b)" transform="scale(23.023438) translate(0.5 0.5)"><g transform="translate(149.367129 17.358752) rotate(214.800502) scale(107.134780 46.812574)"><ellipse fill="#eec8a4" fill-opacity=".501961" cx="0" cy="0" rx="1" ry="1" /></g><ellipse fill="#0e0908" fill-opacity=".501961" cx="159" cy="233" rx="187" ry="41" /><g transform="translate(83 99) rotate(72) scale(40 53)"><path d="M0 0h5894v5823H0z" fill="#ffd181" /></g><g transform="translate(36.562411 25.279717) rotate(36.905216) scale(74.337503 24.371312)"><ellipse fill="#000" fill-opacity=".501961" cx="0" cy="0" rx="1" ry="1" /></g><path fill="#000" fill-opacity=".501961" d="M271 126 133 55l49 81z" /><ellipse fill="#eceae4" fill-opacity=".501961" cx="225" cy="16" rx="60" ry="11" /><g transform="translate(163.317127 154.823838) rotate(199.535117) scale(17.571564 29.361084)"><ellipse fill="#eab16c" fill-opacity=".501961" cx="0" cy="0" rx="1" ry="1" /></g><path fill="#1a100e" fill-opacity=".501961" d="M250 243 215 29l56 19z" /></g></svg>