<svg xmlns="http://www.w3.org/2000/svg" viewBox="0 0 3000 3249"><filter id="b"><feGaussianBlur stdDeviation="12" /></filter><path d="M0 0h3e3v3249H0z" fill="#5d5547" /><g filter="url(#b)" transform="scale(12.691406) translate(0.5 0.5)"><ellipse fill="#e7dbcd" fill-opacity=".501961" cx="64" cy="0" rx="74" ry="74" /><g transform="translate(195 16) rotate(-28) scale(51 69)"><path d="M0 0h3e3v3249H0z" fill="#fff" /></g><g transform="translate(131.074846 215.787899) rotate(416.329860) scale(73.390754 235.000000)"><ellipse fill="#090a09" fill-opacity=".501961" cx="0" cy="0" rx="1" ry="1" /></g><path fill="#bc8c5d" fill-opacity=".501961" d="M14-15-16 220 86 164z" /><path fill="#0c0b0f" fill-opacity=".501961" d="M229 185 105 48l49-29z" /><g transform="translate(92.932504 10.358050) rotate(254.377236) scale(41.328276 13.864670)"><ellipse fill="#ffffe3" fill-opacity=".501961" cx="0" cy="0" rx="1" ry="1" /></g><ellipse fill="#ffe9c3" fill-opacity=".501961" cx="192" cy="0" rx="17" ry="75" /><path fill="#0c090b" fill-opacity=".501961" d="M-6.751993 46.550013 75.544562 49.536487 52.970392 58.043362-.804739 60.13589z" /></g></svg>