<svg xmlns="http://www.w3.org/2000/svg" viewBox="0 0 3000 4000"><filter id="b"><feGaussianBlur stdDeviation="12" /></filter><path d="M0 0h3e3v4e3H0z" fill="#8f8567" /><g filter="url(#b)" transform="scale(15.625000) translate(0.5 0.5)"><ellipse fill="#050000" fill-opacity=".501961" cx="21" cy="59" rx="190" ry="21" /><ellipse fill="#9eecff" fill-opacity=".501961" cx="61" cy="9" rx="78" ry="34" /><g transform="translate(31.513966 140.431328) rotate(-46.612161) scale(47.461781 37.343586)"><ellipse fill="#f3dbb6" fill-opacity=".501961" cx="0" cy="0" rx="1" ry="1" /></g><g transform="translate(92.211270 94.142693) rotate(99.369619) scale(88.884382 15.931144)"><ellipse fill="#673c00" fill-opacity=".501961" cx="0" cy="0" rx="1" ry="1" /></g><ellipse fill="#ddc58b" fill-opacity=".501961" cx="146" cy="157" rx="60" ry="60" /><g transform="translate(51.051120 204.701137) rotate(155.202258) scale(65.267916 22.708614)"><ellipse fill="#453102" fill-opacity=".501961" cx="0" cy="0" rx="1" ry="1" /></g><g transform="translate(90.480631 164.559965) rotate(186.059680) scale(30.282451 31.156268)"><ellipse fill="#e2b400" fill-opacity=".501961" cx="0" cy="0" rx="1" ry="1" /></g><g transform="translate(187.158801 19.359565) rotate(93.941529) scale(52.262880 17.007321)"><ellipse fill="#000f18" fill-opacity=".501961" cx="0" cy="0" rx="1" ry="1" /></g></g></svg>