<svg xmlns="http://www.w3.org/2000/svg" viewBox="0 0 3000 3088"><filter id="b"><feGaussianBlur stdDeviation="12" /></filter><path d="M0 0h3e3v3088H0z" fill="#996f78" /><g filter="url(#b)" transform="scale(12.062500) translate(0.5 0.5)"><g transform="translate(171.402831 230.281912) rotate(-96.369688) scale(55.655294 181.111706)"><ellipse fill="#1b0000" fill-opacity=".501961" cx="0" cy="0" rx="1" ry="1" /></g><g transform="translate(105 33) rotate(65) scale(149 255)"><path d="M0 0h3e3v3088H0z" fill="#e3dcdd" /></g><ellipse fill="#c00339" fill-opacity=".501961" cx="134" cy="135" rx="63" ry="85" /><ellipse fill="#fff" fill-opacity=".501961" cx="81" cy="218" rx="19" ry="19" /><g transform="translate(138.035818 255.000000) rotate(358.789248) scale(55.755899 39.123026)"><ellipse fill="#000" fill-opacity=".501961" cx="0" cy="0" rx="1" ry="1" /></g><ellipse fill="#b6ccc8" fill-opacity=".501961" cx="23" cy="146" rx="27" ry="74" /><g transform="translate(212.045319 35.994699) rotate(125.954484) scale(48.212599 171.053991)"><ellipse fill="#b4cec3" fill-opacity=".501961" cx="0" cy="0" rx="1" ry="1" /></g><g transform="translate(231.259411 163.559241) rotate(56.928141) scale(71.026761 38.733674)"><ellipse fill="#648371" fill-opacity=".501961" cx="0" cy="0" rx="1" ry="1" /></g></g></svg>