<svg xmlns="http://www.w3.org/2000/svg" viewBox="0 0 4000 3000"><filter id="b"><feGaussianBlur stdDeviation="12" /></filter><path d="M0 0h4e3v3e3H0z" fill="#676d68" /><g filter="url(#b)" transform="scale(15.625000) translate(0.5 0.5)"><g transform="translate(202.673880 77.389966) rotate(266.246497) scale(37.381496 115.297189)"><ellipse fill="#000109" fill-opacity=".501961" cx="0" cy="0" rx="1" ry="1" /></g><g transform="translate(58.417463 21.995888) rotate(-6.867492) scale(97.236648 29.519427)"><ellipse fill="#dfcccb" fill-opacity=".501961" cx="0" cy="0" rx="1" ry="1" /></g><g transform="translate(186.445057 188.077891) rotate(294.014098) scale(38.104675 52.208168)"><ellipse fill="#e2ddb1" fill-opacity=".501961" cx="0" cy="0" rx="1" ry="1" /></g><ellipse fill="#e5ebda" fill-opacity=".501961" cx="25" cy="75" rx="30" ry="15" /><g transform="translate(225 16) rotate(269) scale(44 78)"><path d="M0 0h4e3v3e3H0z" fill="#ebbe7a" /></g><g transform="translate(29.777530 37.446561) rotate(-19.674342) scale(10.537570 21.526562)"><ellipse fill="#161007" fill-opacity=".501961" cx="0" cy="0" rx="1" ry="1" /></g><ellipse fill="#315445" fill-opacity=".501961" cx="85" cy="126" rx="34" ry="62" /><g transform="translate(244 59) rotate(362) scale(116 37)"><path d="M0 0h4e3v3e3H0z" fill="#000" /></g></g></svg>