<svg xmlns="http://www.w3.org/2000/svg" viewBox="0 0 5165 5212"><filter id="b"><feGaussianBlur stdDeviation="12" /></filter><path d="M0 0h5165v5212H0z" fill="#675548" /><g filter="url(#b)" transform="scale(20.359375) translate(0.5 0.5)"><g transform="translate(28.088729 45.193718) rotate(-0.941843) scale(32.710753 99.877155)"><ellipse fill="#c5ccbf" fill-opacity=".501961" cx="0" cy="0" rx="1" ry="1" /></g><g transform="translate(79.986819 159.645247) rotate(4.663415) scale(28.367901 32.755443)"><ellipse fill="#eeffe6" fill-opacity=".501961" cx="0" cy="0" rx="1" ry="1" /></g><g transform="translate(160.884493 239.768532) rotate(40.570802) scale(33.038146 186.195034)"><ellipse fill="#000004" fill-opacity=".501961" cx="0" cy="0" rx="1" ry="1" /></g><g transform="translate(156.854463 156.613671) rotate(78.036665) scale(38.694896 20.875016)"><ellipse fill="#c1c9a2" fill-opacity=".501961" cx="0" cy="0" rx="1" ry="1" /></g><ellipse fill="#c07950" fill-opacity=".501961" cx="134" cy="50" rx="48" ry="40" /><g transform="translate(94.052020 255.000000) rotate(-35.576468) scale(19.911272 107.953384)"><ellipse fill="#26070b" fill-opacity=".501961" cx="0" cy="0" rx="1" ry="1" /></g><ellipse fill="#381c1c" fill-opacity=".501961" cx="157" cy="103" rx="97" ry="22" /><g transform="translate(123.837622 185.929147) rotate(193.863334) scale(16.602300 19.847373)"><ellipse fill="#ffd037" fill-opacity=".501961" cx="0" cy="0" rx="1" ry="1" /></g></g></svg>