<svg xmlns="http://www.w3.org/2000/svg" viewBox="0 0 3000 2189"><filter id="b"><feGaussianBlur stdDeviation="12" /></filter><path d="M0 0h3e3v2189H0z" fill="#5e5854" /><g filter="url(#b)" transform="scale(11.718750) translate(0.5 0.5)"><g transform="translate(170.047896 23.813332) rotate(279.578790) scale(37.910295 255.000000)"><ellipse fill="#f2ffff" fill-opacity=".501961" cx="0" cy="0" rx="1" ry="1" /></g><g transform="translate(124.982856 145.117141) rotate(182.274332) scale(147.066293 81.527767)"><ellipse fill="#100000" fill-opacity=".501961" cx="0" cy="0" rx="1" ry="1" /></g><g transform="translate(11.162937 56.202643) rotate(321.027985) scale(39.221644 28.302278)"><ellipse fill="#eceef1" fill-opacity=".501961" cx="0" cy="0" rx="1" ry="1" /></g><ellipse fill="#fff" fill-opacity=".501961" cx="105" cy="96" rx="12" ry="16" /><ellipse fill="#131b00" fill-opacity=".501961" cx="85" cy="62" rx="46" ry="24" /><path fill="#f1ffff" fill-opacity=".501961" d="M39.693418 104.377993 51.829971 126.613335 95.385918 137.305075 85.112394 129.989191z" /><g transform="translate(148.830603 133.044815) rotate(149.503035) scale(104.123031 29.768707)"><ellipse fill="#1a0f04" fill-opacity=".501961" cx="0" cy="0" rx="1" ry="1" /></g><path fill="#c6c9cf" fill-opacity=".501961" d="M31 6 178 75l-1-91z" /></g></svg>