<svg xmlns="http://www.w3.org/2000/svg" viewBox="0 0 3000 4000"><filter id="b"><feGaussianBlur stdDeviation="12" /></filter><path d="M0 0h3e3v4e3H0z" fill="#877f62" /><g filter="url(#b)" transform="scale(15.625000) translate(0.5 0.5)"><g transform="translate(37.578370 15.706182) rotate(174.322876) scale(103.876603 21.575350)"><ellipse fill="#88d9ff" fill-opacity=".501961" cx="0" cy="0" rx="1" ry="1" /></g><g transform="translate(16.931274 65.330193) rotate(271.943984) scale(19.999711 67.095339)"><ellipse fill="#000" fill-opacity=".501961" cx="0" cy="0" rx="1" ry="1" /></g><g transform="translate(177.037297 31.227805) rotate(131.043086) scale(57.760696 34.507587)"><ellipse fill="#041e28" fill-opacity=".501961" cx="0" cy="0" rx="1" ry="1" /></g><ellipse fill="#ddc9a4" fill-opacity=".501961" cx="30" cy="147" rx="48" ry="48" /><g transform="translate(73 194) rotate(127) scale(119 47)"><path d="M0 0h3e3v4e3H0z" fill="#5f3d00" /></g><ellipse fill="#dccba5" fill-opacity=".501961" cx="157" cy="141" rx="50" ry="37" /><g transform="translate(87.418075 68.336792) rotate(73.390142) scale(52.117498 19.830694)"><ellipse fill="#aa7a00" fill-opacity=".501961" cx="0" cy="0" rx="1" ry="1" /></g><g transform="translate(111.012042 163.792872) rotate(33.097801) scale(39.871964 16.051657)"><ellipse fill="#e1a200" fill-opacity=".501961" cx="0" cy="0" rx="1" ry="1" /></g></g></svg>