<svg xmlns="http://www.w3.org/2000/svg" viewBox="0 0 3000 4000"><filter id="b"><feGaussianBlur stdDeviation="12" /></filter><path d="M0 0h3e3v4e3H0z" fill="#786260" /><g filter="url(#b)" transform="scale(15.625000) translate(0.5 0.5)"><g transform="translate(114.092619 219.812281) rotate(178.814033) scale(163.970243 46.180526)"><ellipse fill="#000" fill-opacity=".501961" cx="0" cy="0" rx="1" ry="1" /></g><path fill="#d8dbdc" fill-opacity=".501961" d="M207-1-16 173V0z" /><ellipse fill="#6d0000" fill-opacity=".501961" cx="95" cy="90" rx="30" ry="31" /><g transform="translate(179.912306 66.253881) rotate(165.283053) scale(27.720172 163.648545)"><ellipse fill="#b9d1d5" fill-opacity=".501961" cx="0" cy="0" rx="1" ry="1" /></g><path fill="#250000" fill-opacity=".501961" d="M140 121-16 256H207z" /><g transform="translate(16.835305 163.865559) rotate(103.514377) scale(15.901840 45.268823)"><ellipse fill="#c5d8d5" fill-opacity=".501961" cx="0" cy="0" rx="1" ry="1" /></g><g transform="translate(73 168) rotate(273) scale(60 25)"><path d="M0 0h3e3v4e3H0z" fill="#940000" /></g><path fill="#dac8c1" fill-opacity=".501961" d="M109.141112 168.909722 92.207997 116.783078 84.90951 168.367155 83.601108 196.816481z" /></g></svg>