<svg xmlns="http://www.w3.org/2000/svg" viewBox="0 0 3000 4000"><filter id="b"><feGaussianBlur stdDeviation="12" /></filter><path d="M0 0h3e3v4e3H0z" fill="#4e473c" /><g filter="url(#b)" transform="scale(15.625000) translate(0.5 0.5)"><g transform="translate(60.792287 0.000000) rotate(71.042662) scale(47.814513 161.427646)"><ellipse fill="#ccb898" fill-opacity=".501961" cx="0" cy="0" rx="1" ry="1" /></g><ellipse fill="#1d1511" fill-opacity=".501961" cx="72" cy="206" rx="101" ry="82" /><g transform="translate(88.161692 182.411956) rotate(78.693830) scale(11.816432 19.616019)"><ellipse fill="#ffffe9" fill-opacity=".501961" cx="0" cy="0" rx="1" ry="1" /></g><g transform="translate(0.000000 109.453199) rotate(321.542420) scale(61.867978 31.863165)"><ellipse fill="#c99564" fill-opacity=".501961" cx="0" cy="0" rx="1" ry="1" /></g><ellipse fill="#243a2e" fill-opacity=".501961" cx="86" cy="59" rx="32" ry="48" /><ellipse fill="#f9f4e9" fill-opacity=".501961" cx="115" cy="0" rx="43" ry="12" /><g transform="translate(191.000000 180.088950) rotate(174.355152) scale(8.660378 40.259477)"><ellipse fill="#e5b89f" fill-opacity=".501961" cx="0" cy="0" rx="1" ry="1" /></g><path fill="#000" fill-opacity=".501961" d="M150 107 131 40l76 86z" /></g></svg>