<svg xmlns="http://www.w3.org/2000/svg" viewBox="0 0 788 571"><filter id="b"><feGaussianBlur stdDeviation="12" /></filter><path d="M0 0h788v571H0z" fill="#7f645c" /><g filter="url(#b)" transform="scale(3.078125) translate(0.5 0.5)"><ellipse fill="#f9ffff" fill-opacity=".501961" cx="142" cy="22" rx="255" ry="29" /><path fill="#4c1000" fill-opacity=".501961" d="M138 14 271 183-16 185z" /><g transform="translate(91.163187 87.281519) rotate(-53.428131) scale(55.772929 38.695517)"><ellipse fill="#c2432a" fill-opacity=".501961" cx="0" cy="0" rx="1" ry="1" /></g><g transform="translate(58.783140 7.140550) rotate(267.061831) scale(32.845562 85.728691)"><ellipse fill="#e5fdfd" fill-opacity=".501961" cx="0" cy="0" rx="1" ry="1" /></g><path fill="#272224" fill-opacity=".501961" d="M268 48 255 173 60 2e2z" /><g transform="translate(225.235993 39.043029) rotate(357.582607) scale(74.470101 21.646685)"><ellipse fill="#9cd5e6" fill-opacity=".501961" cx="0" cy="0" rx="1" ry="1" /></g><ellipse fill="#61453b" fill-opacity=".501961" cx="23" cy="133" rx="39" ry="75" /><path fill="#d9f7fc" fill-opacity=".501961" d="M160 48l84-59-101-2z" /></g></svg>