<svg xmlns="http://www.w3.org/2000/svg" viewBox="0 0 5894 5823"><filter id="b"><feGaussianBlur stdDeviation="12" /></filter><path d="M0 0h5894v5823H0z" fill="#5b4d38" /><g filter="url(#b)" transform="scale(23.023438) translate(0.5 0.5)"><g transform="translate(153.734755 25.011031) rotate(117.716295) scale(49.303943 100.983687)"><ellipse fill="#e4c19b" fill-opacity=".501961" cx="0" cy="0" rx="1" ry="1" /></g><g transform="translate(81.181136 238.876240) rotate(248.930201) scale(38.695473 89.856596)"><ellipse fill="#000" fill-opacity=".501961" cx="0" cy="0" rx="1" ry="1" /></g><g transform="translate(81.433383 100.428645) rotate(327.794055) scale(31.047091 23.087923)"><ellipse fill="#ffc97d" fill-opacity=".501961" cx="0" cy="0" rx="1" ry="1" /></g><g transform="translate(225.569119 115.895280) rotate(100.285348) scale(23.621605 64.553955)"><ellipse fill="#000" fill-opacity=".501961" cx="0" cy="0" rx="1" ry="1" /></g><g transform="translate(15.806094 23.178430) rotate(249.066016) scale(27.895790 57.336816)"><ellipse fill="#000" fill-opacity=".501961" cx="0" cy="0" rx="1" ry="1" /></g><ellipse fill="#eae8e3" fill-opacity=".501961" cx="225" cy="16" rx="59" ry="11" /><g transform="translate(142.762734 81.203073) rotate(228.420931) scale(16.326425 58.909896)"><ellipse fill="#382c00" fill-opacity=".501961" cx="0" cy="0" rx="1" ry="1" /></g><ellipse fill="#181311" fill-opacity=".501961" cx="247" cy="227" rx="63" ry="86" /></g></svg>