<svg xmlns="http://www.w3.org/2000/svg" viewBox="0 0 3000 2189"><filter id="b"><feGaussianBlur stdDeviation="12" /></filter><path d="M0 0h3e3v2189H0z" fill="#5e5854" /><g filter="url(#b)" transform="scale(11.718750) translate(0.5 0.5)"><g transform="translate(160.711203 21.290572) rotate(100.326260) scale(39.382190 255.000000)"><ellipse fill="#f1ffff" fill-opacity=".501961" cx="0" cy="0" rx="1" ry="1" /></g><ellipse fill="#100000" fill-opacity=".501961" cx="124" cy="148" rx="145" ry="85" /><path fill="#eef0f3" fill-opacity=".501961" d="M-16 19 4 94 61 38z" /><g transform="translate(104.665857 98.689881) rotate(283.876640) scale(16.421655 10.879813)"><ellipse fill="#feffff" fill-opacity=".501961" cx="0" cy="0" rx="1" ry="1" /></g><g transform="translate(83.555370 59.973389) rotate(1.780154) scale(42.217254 22.009958)"><ellipse fill="#111800" fill-opacity=".501961" cx="0" cy="0" rx="1" ry="1" /></g><path fill="#fff" fill-opacity=".501961" d="M39 103l13 24 35 5z" /><g transform="translate(134.028686 140.208740) rotate(120.370239) scale(69.076818 35.671311)"><ellipse fill="#120c00" fill-opacity=".501961" cx="0" cy="0" rx="1" ry="1" /></g><path fill="#c5c9cf" fill-opacity=".501961" d="M179-16l-2 96L58 7z" /></g></svg>