<svg xmlns="http://www.w3.org/2000/svg" viewBox="0 0 3000 4000"><filter id="b"><feGaussianBlur stdDeviation="12" /></filter><path d="M0 0h3e3v4e3H0z" fill="#4e473c" /><g filter="url(#b)" transform="scale(15.625000) translate(0.5 0.5)"><g transform="translate(87.793939 0.000000) rotate(67.402856) scale(36.966513 153.699823)"><ellipse fill="#ceb999" fill-opacity=".501961" cx="0" cy="0" rx="1" ry="1" /></g><ellipse fill="#1d1512" fill-opacity=".501961" cx="70" cy="224" rx="102" ry="102" /><g transform="translate(87.712319 184.347387) rotate(343.320673) scale(18.679846 15.233565)"><ellipse fill="#ffffcd" fill-opacity=".501961" cx="0" cy="0" rx="1" ry="1" /></g><g transform="translate(0.000000 111.470580) rotate(48.414325) scale(29.392924 64.032099)"><ellipse fill="#cd9765" fill-opacity=".501961" cx="0" cy="0" rx="1" ry="1" /></g><ellipse fill="#faf6ea" fill-opacity=".501961" cx="116" cy="2" rx="43" ry="9" /><ellipse fill="#0e261e" fill-opacity=".501961" cx="87" cy="30" rx="26" ry="14" /><path fill="#eddcb6" fill-opacity=".501961" d="M55.204767 90.212507 80.06833 126.871242 49.078684 100.414293 33.815078 51.805267z" /><path d="M0 0h3e3v4e3H0z" fill="#d7ab93" /></g></svg>