<svg xmlns="http://www.w3.org/2000/svg" viewBox="0 0 3000 3088"><filter id="b"><feGaussianBlur stdDeviation="12" /></filter><path d="M0 0h3e3v3088H0z" fill="#996f78" /><g filter="url(#b)" transform="scale(12.062500) translate(0.5 0.5)"><ellipse fill="#150000" fill-opacity=".501961" cx="130" cy="243" rx="131" ry="58" /><g transform="translate(80.195184 49.018324) rotate(66.394837) scale(72.875329 248.000000)"><ellipse fill="#e2dadc" fill-opacity=".501961" cx="0" cy="0" rx="1" ry="1" /></g><g transform="translate(138.825461 140.394216) rotate(56.907698) scale(103.865693 65.625319)"><ellipse fill="#b00836" fill-opacity=".501961" cx="0" cy="0" rx="1" ry="1" /></g><ellipse fill="#fff" fill-opacity=".501961" cx="82" cy="219" rx="19" ry="20" /><g transform="translate(146.162995 255.000000) rotate(191.957074) scale(59.437357 36.571708)"><ellipse fill="#000" fill-opacity=".501961" cx="0" cy="0" rx="1" ry="1" /></g><path fill="#bcceca" fill-opacity=".501961" d="M77 127-16 235 2-16z" /><g transform="translate(194.659140 170.082587) rotate(78.223212) scale(32.279270 39.372754)"><ellipse fill="#2b3a29" fill-opacity=".501961" cx="0" cy="0" rx="1" ry="1" /></g><g transform="translate(176.963810 29.340571) rotate(212.809134) scale(248.000000 36.446700)"><ellipse fill="#b8d0c6" fill-opacity=".501961" cx="0" cy="0" rx="1" ry="1" /></g></g></svg>