<svg xmlns="http://www.w3.org/2000/svg" viewBox="0 0 3000 4000"><filter id="b"><feGaussianBlur stdDeviation="12" /></filter><path d="M0 0h3e3v4e3H0z" fill="#8f8567" /><g filter="url(#b)" transform="scale(15.625000) translate(0.5 0.5)"><g transform="translate(85.311844 59.881190) rotate(86.569154) scale(19.063385 168.514687)"><ellipse fill="#030000" fill-opacity=".501961" cx="0" cy="0" rx="1" ry="1" /></g><g transform="translate(85.280110 0.000000) rotate(77.665869) scale(30.147908 103.357338)"><ellipse fill="#a2f4ff" fill-opacity=".501961" cx="0" cy="0" rx="1" ry="1" /></g><g transform="translate(25.429138 144.037324) rotate(139.400272) scale(54.048462 38.400055)"><ellipse fill="#f3dbb8" fill-opacity=".501961" cx="0" cy="0" rx="1" ry="1" /></g><g transform="translate(85.556596 93.025530) rotate(346.027300) scale(20.151078 33.425546)"><ellipse fill="#260000" fill-opacity=".501961" cx="0" cy="0" rx="1" ry="1" /></g><ellipse fill="#ddc78f" fill-opacity=".501961" cx="146" cy="152" rx="56" ry="56" /><g transform="translate(52.861777 202.683849) rotate(150.909671) scale(69.659359 24.205349)"><ellipse fill="#513a00" fill-opacity=".501961" cx="0" cy="0" rx="1" ry="1" /></g><g transform="translate(90.505917 164.814169) rotate(408.334164) scale(31.697417 31.180846)"><ellipse fill="#e1b100" fill-opacity=".501961" cx="0" cy="0" rx="1" ry="1" /></g><g transform="translate(182 21) rotate(178) scale(22 95)"><path d="M0 0h3e3v4e3H0z" fill="#00121b" /></g></g></svg>