<svg xmlns="http://www.w3.org/2000/svg" viewBox="0 0 3000 4000"><filter id="b"><feGaussianBlur stdDeviation="12" /></filter><path d="M0 0h3e3v4e3H0z" fill="#877f62" /><g filter="url(#b)" transform="scale(15.625000) translate(0.5 0.5)"><g transform="translate(61.666030 9.734513) rotate(171.383469) scale(83.903236 27.029159)"><ellipse fill="#88d7ff" fill-opacity=".501961" cx="0" cy="0" rx="1" ry="1" /></g><g transform="translate(25.870229 64.105749) rotate(97.003737) scale(19.385203 63.275878)"><ellipse fill="#000" fill-opacity=".501961" cx="0" cy="0" rx="1" ry="1" /></g><g transform="translate(191.000000 19.392598) rotate(408.066328) scale(36.630404 79.395259)"><ellipse fill="#061f27" fill-opacity=".501961" cx="0" cy="0" rx="1" ry="1" /></g><g transform="translate(34.040324 140.442307) rotate(315.410007) scale(52.050371 41.585274)"><ellipse fill="#dbcbae" fill-opacity=".501961" cx="0" cy="0" rx="1" ry="1" /></g><path fill="#634100" fill-opacity=".501961" d="M136 192 96 115 6 253z" /><g transform="translate(163.770351 144.118205) rotate(12.895632) scale(57.218814 37.547957)"><ellipse fill="#d9c9a5" fill-opacity=".501961" cx="0" cy="0" rx="1" ry="1" /></g><g transform="translate(87.420496 63.480895) rotate(256.828658) scale(53.533187 22.039105)"><ellipse fill="#a57900" fill-opacity=".501961" cx="0" cy="0" rx="1" ry="1" /></g><g transform="translate(111.460114 164.276678) rotate(121.779967) scale(15.829178 38.884231)"><ellipse fill="#e8aa00" fill-opacity=".501961" cx="0" cy="0" rx="1" ry="1" /></g></g></svg>