<svg xmlns="http://www.w3.org/2000/svg" viewBox="0 0 3000 4000"><filter id="b"><feGaussianBlur stdDeviation="12" /></filter><path d="M0 0h3e3v4e3H0z" fill="#786260" /><g filter="url(#b)" transform="scale(15.625000) translate(0.5 0.5)"><g transform="translate(95.525722 230.642516) rotate(87.100557) scale(54.607051 180.471723)"><ellipse fill="#000" fill-opacity=".501961" cx="0" cy="0" rx="1" ry="1" /></g><g transform="translate(98.090337 18.854230) rotate(93.628255) scale(44.092972 191.000000)"><ellipse fill="#daf5f9" fill-opacity=".501961" cx="0" cy="0" rx="1" ry="1" /></g><g transform="translate(24.403393 100.105888) rotate(355.337928) scale(44.802762 83.450126)"><ellipse fill="#cac8c5" fill-opacity=".501961" cx="0" cy="0" rx="1" ry="1" /></g><ellipse fill="maroon" fill-opacity=".501961" cx="95" cy="90" rx="30" ry="30" /><g transform="translate(116.786254 190.206630) rotate(115.308403) scale(73.921185 23.046990)"><ellipse fill="#250000" fill-opacity=".501961" cx="0" cy="0" rx="1" ry="1" /></g><g transform="translate(191.000000 120.399541) rotate(78.601570) scale(65.632521 23.688212)"><ellipse fill="#c4d9d9" fill-opacity=".501961" cx="0" cy="0" rx="1" ry="1" /></g><g transform="translate(42.748669 139.935192) rotate(141.472664) scale(18.594938 9.303120)"><ellipse fill="#360000" fill-opacity=".501961" cx="0" cy="0" rx="1" ry="1" /></g><g transform="translate(106.905269 237.197371) rotate(91.261477) scale(37.755553 119.516944)"><ellipse fill="#100000" fill-opacity=".501961" cx="0" cy="0" rx="1" ry="1" /></g></g></svg>