<svg xmlns="http://www.w3.org/2000/svg" viewBox="0 0 4000 3000"><filter id="b"><feGaussianBlur stdDeviation="12" /></filter><path d="M0 0h4e3v3e3H0z" fill="#676d68" /><g filter="url(#b)" transform="scale(15.625000) translate(0.5 0.5)"><ellipse fill="#00020a" fill-opacity=".501961" cx="197" cy="76" rx="112" ry="38" /><g transform="translate(56.842775 17.836636) rotate(265.237155) scale(32.446776 99.520040)"><ellipse fill="#e0cdcb" fill-opacity=".501961" cx="0" cy="0" rx="1" ry="1" /></g><path fill="#e0dbae" fill-opacity=".501961" d="M167 131l-39 58 143 8z" /><path fill="#f3cc97" fill-opacity=".501961" d="M185 37h85L191-16z" /><path fill="#dcdfcc" fill-opacity=".501961" d="M-16 69.426744 24.411274 57.241326 74.750362 77.892407-16 99.771157z" /><path fill="#2b4f46" fill-opacity=".501961" d="M102 186l89-70L7 86z" /><g transform="translate(31.019906 39.124171) rotate(345.166055) scale(10.599855 21.175037)"><ellipse fill="#17100a" fill-opacity=".501961" cx="0" cy="0" rx="1" ry="1" /></g><g transform="translate(240.889490 58.150229) rotate(8.667471) scale(52.715783 17.269731)"><ellipse fill="#000" fill-opacity=".501961" cx="0" cy="0" rx="1" ry="1" /></g></g></svg>