<svg xmlns="http://www.w3.org/2000/svg" viewBox="0 0 788 571"><filter id="b"><feGaussianBlur stdDeviation="12" /></filter><path d="M0 0h788v571H0z" fill="#7f645c" /><g filter="url(#b)" transform="scale(3.078125) translate(0.5 0.5)"><g transform="translate(139.530289 24.173760) rotate(180.391497) scale(255.000000 28.408062)"><ellipse fill="#f7ffff" fill-opacity=".501961" cx="0" cy="0" rx="1" ry="1" /></g><g transform="translate(139.802473 135.239350) rotate(281.055914) scale(88.507423 143.449440)"><ellipse fill="#50170a" fill-opacity=".501961" cx="0" cy="0" rx="1" ry="1" /></g><g transform="translate(98.615992 86.826711) rotate(306.296899) scale(85.191597 32.037097)"><ellipse fill="#aa492a" fill-opacity=".501961" cx="0" cy="0" rx="1" ry="1" /></g><g transform="translate(87.466271 9.105301) rotate(80.589600) scale(26.272775 172.110023)"><ellipse fill="#e0f9f8" fill-opacity=".501961" cx="0" cy="0" rx="1" ry="1" /></g><path fill="#111719" fill-opacity=".501961" d="M224 2e2l-8-88L81 178z" /><ellipse fill="#97d2e4" fill-opacity=".501961" cx="222" cy="41" rx="70" ry="20" /><g transform="translate(139.315653 42.454368) rotate(6.097852) scale(13.637444 29.003993)"><ellipse fill="#5d4f11" fill-opacity=".501961" cx="0" cy="0" rx="1" ry="1" /></g><path fill="#cc5b47" fill-opacity=".501961" d="M43 57l92-27L66 135z" /></g></svg>