<svg xmlns="http://www.w3.org/2000/svg" viewBox="0 0 2669 2670"><filter id="b"><feGaussianBlur stdDeviation="12" /></filter><path d="M0 0h2669v2670H0z" fill="#c1aea9" /><g filter="url(#b)" transform="scale(10.429688) translate(0.5 0.5)"><g transform="translate(239.322183 173.862356) rotate(273.815502) scale(255.000000 24.696324)"><ellipse fill="#7e766c" fill-opacity=".501961" cx="0" cy="0" rx="1" ry="1" /></g><path fill="#e7ece1" fill-opacity=".501961" d="M-2 14 119 141-15 198z" /><g transform="translate(121.269941 128.282225) rotate(295.137037) scale(96.208170 4.383413)"><ellipse fill="#c71454" fill-opacity=".501961" cx="0" cy="0" rx="1" ry="1" /></g><path fill="#cf004d" fill-opacity=".501961" d="M131.834555 143.222657 61.42583 88.42142 64.573167 21.411052 52.130645 56.355591z" /><g transform="translate(41.695826 183.492202) rotate(65.544173) scale(4.295569 117.613616)"><ellipse fill="#643200" fill-opacity=".501961" cx="0" cy="0" rx="1" ry="1" /></g><g transform="translate(113.924252 82.660757) rotate(244.377973) scale(19.679664 30.523979)"><ellipse fill="#fdfef5" fill-opacity=".501961" cx="0" cy="0" rx="1" ry="1" /></g><path fill="#ca024f" fill-opacity=".501961" d="M154 26 105 64 94 44z" /><g transform="translate(138.829047 177.086942) rotate(178.470324) scale(63.285231 22.142592)"><ellipse fill="#dfd5cf" fill-opacity=".501961" cx="0" cy="0" rx="1" ry="1" /></g></g></svg>