<svg xmlns="http://www.w3.org/2000/svg" viewBox="0 0 2669 2670"><filter id="b"><feGaussianBlur stdDeviation="12" /></filter><path d="M0 0h2669v2670H0z" fill="#c1aea9" /><g filter="url(#b)" transform="scale(10.429688) translate(0.5 0.5)"><g transform="translate(236.780361 190.009507) rotate(4.308698) scale(24.201624 255.000000)"><ellipse fill="#7e776c" fill-opacity=".501961" cx="0" cy="0" rx="1" ry="1" /></g><g transform="translate(42.656898 107.586799) rotate(258.178706) scale(61.486527 84.442785)"><ellipse fill="#ecdbda" fill-opacity=".501961" cx="0" cy="0" rx="1" ry="1" /></g><g transform="translate(56.310748 177.205598) rotate(64.810160) scale(3.719218 127.599168)"><ellipse fill="#612a00" fill-opacity=".501961" cx="0" cy="0" rx="1" ry="1" /></g><path fill="#c20042" fill-opacity=".501961" d="M65.769109 69.014704 59.549337 30.322201 48.766513 64.973137 149.35201 171.469193z" /><path fill="#cb0752" fill-opacity=".501961" d="M135.589542 107.451004 172.258426 23.733106 109.430819 134.89589 116.85728 154.198495z" /><g transform="translate(124 43) rotate(57) scale(11 58)"><path d="M0 0h2669v2670H0z" fill="#c30041" /></g><path fill="#e8e1da" fill-opacity=".501961" d="M59 179l93 28-8-66z" /><path fill="#dfdbd4" fill-opacity=".501961" d="M208 149l-59-48L171-16z" /></g></svg>