<svg xmlns="http://www.w3.org/2000/svg" viewBox="0 0 5894 5823"><filter id="b"><feGaussianBlur stdDeviation="12" /></filter><path d="M0 0h5894v5823H0z" fill="#5b4d38" /><g filter="url(#b)" transform="scale(23.023438) translate(0.5 0.5)"><ellipse fill="#f2caa8" fill-opacity=".501961" cx="164" cy="0" rx="97" ry="64" /><g transform="translate(164.985732 226.602918) rotate(85.867341) scale(38.011538 228.063431)"><ellipse fill="#100a09" fill-opacity=".501961" cx="0" cy="0" rx="1" ry="1" /></g><g transform="translate(80.135651 100.609499) rotate(146.183254) scale(30.414980 22.112094)"><ellipse fill="#ffcc81" fill-opacity=".501961" cx="0" cy="0" rx="1" ry="1" /></g><ellipse fill="#f7e9d3" fill-opacity=".501961" cx="203" cy="75" rx="34" ry="15" /><g transform="translate(45.446061 35.338546) rotate(306.496882) scale(26.925980 55.544226)"><ellipse fill="#000" fill-opacity=".501961" cx="0" cy="0" rx="1" ry="1" /></g><g transform="translate(228.643071 121.663044) rotate(18.017538) scale(69.486600 23.062713)"><ellipse fill="#000" fill-opacity=".501961" cx="0" cy="0" rx="1" ry="1" /></g><g transform="translate(165 154) rotate(204) scale(32 45)"><path d="M0 0h5894v5823H0z" fill="#f5bd7a" /></g><g transform="translate(21.982117 57.861753) rotate(61.598619) scale(7.699482 46.491484)"><ellipse fill="#beaf92" fill-opacity=".501961" cx="0" cy="0" rx="1" ry="1" /></g></g></svg>