<svg xmlns="http://www.w3.org/2000/svg" viewBox="0 0 5165 5212"><filter id="b"><feGaussianBlur stdDeviation="12" /></filter><path d="M0 0h5165v5212H0z" fill="#675548" /><g filter="url(#b)" transform="scale(20.359375) translate(0.5 0.5)"><g transform="translate(20.320023 20.047566) rotate(264.955113) scale(123.107683 39.610044)"><ellipse fill="#c3cbbe" fill-opacity=".501961" cx="0" cy="0" rx="1" ry="1" /></g><ellipse fill="#f2ffe8" fill-opacity=".501961" cx="80" cy="158" rx="27" ry="35" /><g transform="translate(145.802707 255.000000) rotate(221.427709) scale(33.885428 181.910334)"><ellipse fill="#000003" fill-opacity=".501961" cx="0" cy="0" rx="1" ry="1" /></g><g transform="translate(159.670043 156.046775) rotate(168.666335) scale(24.656886 35.901202)"><ellipse fill="#bfc79f" fill-opacity=".501961" cx="0" cy="0" rx="1" ry="1" /></g><ellipse fill="#bd764f" fill-opacity=".501961" cx="136" cy="48" rx="50" ry="41" /><g transform="translate(82.034458 234.007450) rotate(234.833366) scale(78.240589 14.695732)"><ellipse fill="#190004" fill-opacity=".501961" cx="0" cy="0" rx="1" ry="1" /></g><path fill="#36261f" fill-opacity=".501961" d="M229.16599 212.90003 176.479506 124.784921 56.151515 125.673809 269 30.834174z" /><g transform="translate(123.675144 185.051623) rotate(192.297927) scale(16.182790 20.025759)"><ellipse fill="#ffd137" fill-opacity=".501961" cx="0" cy="0" rx="1" ry="1" /></g></g></svg>