<svg xmlns="http://www.w3.org/2000/svg" viewBox="0 0 3000 4000"><filter id="b"><feGaussianBlur stdDeviation="12" /></filter><path d="M0 0h3e3v4e3H0z" fill="#8f8567" /><g filter="url(#b)" transform="scale(15.625000) translate(0.5 0.5)"><g transform="translate(63.335199 60.563558) rotate(267.232758) scale(18.865690 185.441279)"><ellipse fill="#010000" fill-opacity=".501961" cx="0" cy="0" rx="1" ry="1" /></g><g transform="translate(57.319711 0.000000) rotate(84.571984) scale(34.547090 113.228790)"><ellipse fill="#a2f3ff" fill-opacity=".501961" cx="0" cy="0" rx="1" ry="1" /></g><g transform="translate(30.316561 140.144958) rotate(138.089655) scale(47.560029 35.036231)"><ellipse fill="#f5debe" fill-opacity=".501961" cx="0" cy="0" rx="1" ry="1" /></g><g transform="translate(87.645467 127.970633) rotate(275.287926) scale(112.295202 16.842929)"><ellipse fill="#744800" fill-opacity=".501961" cx="0" cy="0" rx="1" ry="1" /></g><ellipse fill="#e0c990" fill-opacity=".501961" cx="143" cy="152" rx="55" ry="55" /><g transform="translate(49.157794 204.199066) rotate(153.422805) scale(74.021326 22.621668)"><ellipse fill="#503f0a" fill-opacity=".501961" cx="0" cy="0" rx="1" ry="1" /></g><ellipse fill="#e8bb00" fill-opacity=".501961" cx="90" cy="164" rx="31" ry="31" /><g transform="translate(87.994330 94.097440) rotate(257.318066) scale(30.032790 16.645445)"><ellipse fill="#0b0000" fill-opacity=".501961" cx="0" cy="0" rx="1" ry="1" /></g></g></svg>