<svg xmlns="http://www.w3.org/2000/svg" viewBox="0 0 3000 2189"><filter id="b"><feGaussianBlur stdDeviation="12" /></filter><path d="M0 0h3e3v2189H0z" fill="#5e5854" /><g filter="url(#b)" transform="scale(11.718750) translate(0.5 0.5)"><g transform="translate(186.698845 27.551992) rotate(-80.952129) scale(37.049629 255.000000)"><ellipse fill="#f2ffff" fill-opacity=".501961" cx="0" cy="0" rx="1" ry="1" /></g><g transform="translate(115.088541 150.057572) rotate(87.724441) scale(85.739533 152.748776)"><ellipse fill="#100000" fill-opacity=".501961" cx="0" cy="0" rx="1" ry="1" /></g><g transform="translate(0.000000 61.090883) rotate(237.424191) scale(28.461706 54.995644)"><ellipse fill="#ebedf0" fill-opacity=".501961" cx="0" cy="0" rx="1" ry="1" /></g><g transform="translate(103.841984 98.544212) rotate(393.624359) scale(13.312306 16.405722)"><ellipse fill="#dff0ee" fill-opacity=".501961" cx="0" cy="0" rx="1" ry="1" /></g><ellipse fill="#111900" fill-opacity=".501961" cx="81" cy="59" rx="42" ry="22" /><path fill="#f6ffff" fill-opacity=".501961" d="M40 102l54 34-41-10z" /><path fill="#0e0d00" fill-opacity=".501961" d="M253 76 94 201 120 82z" /><path fill="#9fadb8" fill-opacity=".501961" d="M135.921192 68.475448 182.088391-14.204443 271 130.529167V74.818354z" /></g></svg>