<svg xmlns="http://www.w3.org/2000/svg" viewBox="0 0 3000 4000"><filter id="b"><feGaussianBlur stdDeviation="12" /></filter><path d="M0 0h3e3v4e3H0z" fill="#4e473c" /><g filter="url(#b)" transform="scale(15.625000) translate(0.5 0.5)"><g transform="translate(61.709658 1.488128) rotate(162.694347) scale(151.178126 48.282262)"><ellipse fill="#c8b596" fill-opacity=".501961" cx="0" cy="0" rx="1" ry="1" /></g><ellipse fill="#1d1511" fill-opacity=".501961" cx="72" cy="205" rx="101" ry="81" /><g transform="translate(89.418243 183.940999) rotate(354.003432) scale(20.914557 14.441731)"><ellipse fill="#fffecb" fill-opacity=".501961" cx="0" cy="0" rx="1" ry="1" /></g><g transform="translate(7.067427 106.118071) rotate(315.923417) scale(56.374007 28.581045)"><ellipse fill="#cb9664" fill-opacity=".501961" cx="0" cy="0" rx="1" ry="1" /></g><path d="M0 0h3e3v4e3H0z" fill="#1e3328" /><g transform="translate(114.489326 0.000000) rotate(179.638528) scale(42.657381 11.861143)"><ellipse fill="#fbf7eb" fill-opacity=".501961" cx="0" cy="0" rx="1" ry="1" /></g><g transform="translate(170.481406 94.481389) rotate(134.918966) scale(16.119966 42.546729)"><ellipse fill="#000006" fill-opacity=".501961" cx="0" cy="0" rx="1" ry="1" /></g><path fill="#efba9c" fill-opacity=".501961" d="M183 138l24 22-20 77z" /></g></svg>