<svg xmlns="http://www.w3.org/2000/svg" viewBox="0 0 3000 3249"><filter id="b"><feGaussianBlur stdDeviation="12" /></filter><path d="M0 0h3e3v3249H0z" fill="#5d5547" /><g filter="url(#b)" transform="scale(12.691406) translate(0.5 0.5)"><g transform="translate(61.871261 3.811657) rotate(180.965520) scale(87.960889 46.942318)"><ellipse fill="#faf0e0" fill-opacity=".501961" cx="0" cy="0" rx="1" ry="1" /></g><ellipse fill="#fff" fill-opacity=".501961" cx="196" cy="0" rx="28" ry="56" /><g transform="translate(115.343847 225.641484) rotate(144.172379) scale(235.000000 72.268040)"><ellipse fill="#080a08" fill-opacity=".501961" cx="0" cy="0" rx="1" ry="1" /></g><g transform="translate(33.244604 102.497846) rotate(103.704861) scale(101.283468 58.871166)"><ellipse fill="#b39270" fill-opacity=".501961" cx="0" cy="0" rx="1" ry="1" /></g><g transform="translate(154.105304 69.408227) rotate(147.350264) scale(19.520934 70.018847)"><ellipse fill="#151315" fill-opacity=".501961" cx="0" cy="0" rx="1" ry="1" /></g><g transform="translate(85.507998 46.355540) rotate(113.050747) scale(40.836397 22.190007)"><ellipse fill="#d5d3c9" fill-opacity=".501961" cx="0" cy="0" rx="1" ry="1" /></g><ellipse fill="#32423d" fill-opacity=".501961" cx="141" cy="121" rx="70" ry="70" /><path fill="#ffeac1" fill-opacity=".501961" d="M222-1 168-12l21 93z" /></g></svg>