<svg xmlns="http://www.w3.org/2000/svg" viewBox="0 0 3000 4000"><filter id="b"><feGaussianBlur stdDeviation="12" /></filter><path d="M0 0h3e3v4e3H0z" fill="#877f62" /><g filter="url(#b)" transform="scale(15.625000) translate(0.5 0.5)"><g transform="translate(61.376963 11.371072) rotate(172.323092) scale(79.031263 24.492791)"><ellipse fill="#8adaff" fill-opacity=".501961" cx="0" cy="0" rx="1" ry="1" /></g><g transform="translate(13.144716 63.058956) rotate(94.688192) scale(19.122884 74.506504)"><ellipse fill="#000" fill-opacity=".501961" cx="0" cy="0" rx="1" ry="1" /></g><g transform="translate(168.093607 40.288245) rotate(208.040563) scale(31.751086 63.750640)"><ellipse fill="#172824" fill-opacity=".501961" cx="0" cy="0" rx="1" ry="1" /></g><ellipse fill="#ddcba9" fill-opacity=".501961" cx="33" cy="140" rx="48" ry="44" /><g transform="translate(64.316367 204.124686) rotate(55.407917) scale(19.759602 71.278950)"><ellipse fill="#392500" fill-opacity=".501961" cx="0" cy="0" rx="1" ry="1" /></g><ellipse fill="#ddcba1" fill-opacity=".501961" cx="154" cy="141" rx="48" ry="37" /><ellipse fill="#c98500" fill-opacity=".501961" cx="94" cy="161" rx="32" ry="24" /><path fill="#906300" fill-opacity=".501961" d="M60.017451 76.544273 151.92923 53.169537 98.581074 28.577212 69.032467 19.641203z" /></g></svg>