<svg xmlns="http://www.w3.org/2000/svg" viewBox="0 0 3000 3088"><filter id="b"><feGaussianBlur stdDeviation="12" /></filter><path d="M0 0h3e3v3088H0z" fill="#996f78" /><g filter="url(#b)" transform="scale(12.062500) translate(0.5 0.5)"><g transform="translate(141.688670 234.422532) rotate(164.482812) scale(170.094633 61.874691)"><ellipse fill="#200" fill-opacity=".501961" cx="0" cy="0" rx="1" ry="1" /></g><g transform="translate(89.123359 43.399578) rotate(-23.984861) scale(248.000000 73.757695)"><ellipse fill="#e2dadc" fill-opacity=".501961" cx="0" cy="0" rx="1" ry="1" /></g><g transform="translate(124 134) rotate(88) scale(164 109)"><path d="M0 0h3e3v3088H0z" fill="#ca1047" /></g><g transform="translate(81.545068 219.288095) rotate(-2.332873) scale(18.328534 19.166842)"><ellipse fill="#f9ffff" fill-opacity=".501961" cx="0" cy="0" rx="1" ry="1" /></g><ellipse fill="#000" fill-opacity=".501961" cx="206" cy="255" rx="235" ry="25" /><ellipse fill="#bdcdca" fill-opacity=".501961" cx="19" cy="95" rx="41" ry="110" /><g transform="translate(223.733700 61.528823) rotate(41.995196) scale(96.864687 38.048222)"><ellipse fill="#b2d0c4" fill-opacity=".501961" cx="0" cy="0" rx="1" ry="1" /></g><ellipse fill="#770f22" fill-opacity=".501961" cx="171" cy="152" rx="24" ry="83" /></g></svg>