<svg xmlns="http://www.w3.org/2000/svg" viewBox="0 0 3000 4000"><filter id="b"><feGaussianBlur stdDeviation="12" /></filter><path d="M0 0h3e3v4e3H0z" fill="#786260" /><g filter="url(#b)" transform="scale(15.625000) translate(0.5 0.5)"><g transform="translate(83.804162 226.802346) rotate(84.847993) scale(51.354492 161.169731)"><ellipse fill="#000" fill-opacity=".501961" cx="0" cy="0" rx="1" ry="1" /></g><g transform="translate(90.512888 22.441872) rotate(276.012358) scale(39.687809 191.000000)"><ellipse fill="#daf5f9" fill-opacity=".501961" cx="0" cy="0" rx="1" ry="1" /></g><ellipse fill="#cecfcb" fill-opacity=".501961" cx="26" cy="109" rx="43" ry="74" /><ellipse fill="maroon" fill-opacity=".501961" cx="95" cy="91" rx="30" ry="31" /><g transform="translate(121.152171 179.266328) rotate(288.275407) scale(101.627368 16.059742)"><ellipse fill="#230000" fill-opacity=".501961" cx="0" cy="0" rx="1" ry="1" /></g><path fill="#c7dcdb" fill-opacity=".501961" d="M207 66 183 178 157 65z" /><g transform="translate(110.737477 244.633094) rotate(183.165152) scale(126.169934 46.485040)"><ellipse fill="#100" fill-opacity=".501961" cx="0" cy="0" rx="1" ry="1" /></g><g transform="translate(40 142) rotate(51) scale(14 35)"><path d="M0 0h3e3v4e3H0z" fill="#2b0000" /></g></g></svg>