<svg xmlns="http://www.w3.org/2000/svg" viewBox="0 0 4000 3000"><filter id="b"><feGaussianBlur stdDeviation="12" /></filter><path d="M0 0h4e3v3e3H0z" fill="#676d68" /><g filter="url(#b)" transform="scale(15.625000) translate(0.5 0.5)"><g transform="translate(179.399943 83.140590) rotate(438.740277) scale(37.679592 123.437568)"><ellipse fill="#040b11" fill-opacity=".501961" cx="0" cy="0" rx="1" ry="1" /></g><g transform="translate(60.936521 18.126072) rotate(261.925575) scale(31.181954 99.303250)"><ellipse fill="#e1cdcc" fill-opacity=".501961" cx="0" cy="0" rx="1" ry="1" /></g><g transform="translate(189.863516 191.000000) rotate(390.158977) scale(56.187063 40.231025)"><ellipse fill="#e1dcaf" fill-opacity=".501961" cx="0" cy="0" rx="1" ry="1" /></g><g transform="translate(26.374911 73.985858) rotate(364.420673) scale(28.524554 14.777251)"><ellipse fill="#e5e9d7" fill-opacity=".501961" cx="0" cy="0" rx="1" ry="1" /></g><path d="M0 0h4e3v3e3H0z" fill="#ebbe7a" /><g transform="translate(237.965035 58.334271) rotate(11.255021) scale(60.871938 16.105614)"><ellipse fill="#000" fill-opacity=".501961" cx="0" cy="0" rx="1" ry="1" /></g><g transform="translate(30.710328 36.756374) rotate(256.968894) scale(22.465196 10.338830)"><ellipse fill="#171207" fill-opacity=".501961" cx="0" cy="0" rx="1" ry="1" /></g><g transform="translate(15.025367 178.189790) rotate(378.861433) scale(32.813739 52.047168)"><ellipse fill="#6f8dc0" fill-opacity=".501961" cx="0" cy="0" rx="1" ry="1" /></g></g></svg>