<svg xmlns="http://www.w3.org/2000/svg" viewBox="0 0 788 571"><filter id="b"><feGaussianBlur stdDeviation="12" /></filter><path d="M0 0h788v571H0z" fill="#7f645c" /><g filter="url(#b)" transform="scale(3.078125) translate(0.5 0.5)"><g transform="translate(135.968589 21.196205) rotate(0.718307) scale(248.908106 32.227361)"><ellipse fill="#f6ffff" fill-opacity=".501961" cx="0" cy="0" rx="1" ry="1" /></g><ellipse fill="#521708" fill-opacity=".501961" cx="121" cy="176" rx="137" ry="137" /><ellipse fill="#cc4b30" fill-opacity=".501961" cx="97" cy="84" rx="45" ry="45" /><g transform="translate(111.254232 0.000000) rotate(-12.751409) scale(206.330130 27.857494)"><ellipse fill="#e2f9f8" fill-opacity=".501961" cx="0" cy="0" rx="1" ry="1" /></g><path d="M0 0h788v571H0z" fill="#4a2208" /><g transform="translate(200.991934 139.377502) rotate(233.389279) scale(37.172922 195.279103)"><ellipse fill="#2a2526" fill-opacity=".501961" cx="0" cy="0" rx="1" ry="1" /></g><path fill="#abdae7" fill-opacity=".501961" d="M271 58 140-16l23 77z" /><g transform="translate(223.758145 43.482682) rotate(192.775303) scale(2.990828 96.263087)"><ellipse fill="#333933" fill-opacity=".501961" cx="0" cy="0" rx="1" ry="1" /></g></g></svg>